PathFileType	4	(X/Y/Z)	OpenSim_Sub04_CSBaseline_Accel.trc
DataRate	CameraRate	NumFrames	NumMarkers	Units	OrigDataRate	OrigDataStartFrame	OrigNumFrames
100	100	13	8	m	100	3032	8083
Frame#	Time	torso_imu_offset_imu	pelvis_imu_offset_imu	tibia_r_imu_offset_imu	femur_r_imu_offset_imu	tibia_l_imu_offset_imu	femur_l_imu_offset_imu	toes_r_imu_offset_imu	toes_l_imu_offset_imu
				X1	Y1	Z1	X2	Y2	Z2	X3	Y3	Z3	X4	Y4	Z4	X5	Y5	Z5	X6	Y6	Z6	X7	Y7	Z7	X8		Y8	Z8	

3032	30.31000000	-7.60378120	-1.21195992	8.03246249	9.07205650	-1.56601534	2.21262398	7.01645144	2.76716184	1.47349661	6.90725426	-5.81789390	2.57207789	9.73567736	0.69864007	1.56451411	9.16806668	0.97582423	-2.47502466	14.24874984	1.85179433	-9.07878897	5.74758580	2.52940004	10.37746940
3033	30.32000000	-7.51845861	-1.15694462	8.11316559	9.07262648	-1.80609887	2.07564163	7.65520332	3.11663292	0.39846320	6.42601205	-5.28133563	2.71532654	9.69500289	0.38710446	1.53408438	9.36136857	0.82347235	-2.49964866	7.47016478	3.09314447	6.06306120	6.09003086	2.46744453	10.29300877
3034	30.33000000	-7.62678788	-1.11492320	8.25604047	8.97201458	-1.98348751	2.11163979	8.69019929	4.22031325	1.68442698	6.75446881	-4.01168350	2.65878014	9.79716660	-0.41933515	1.46506778	9.51420037	0.85498947	-2.40522232	2.55002075	-11.10511480	15.58073169	6.50367705	2.25726792	10.16961116
3035	30.34000000	-8.05631295	-1.06512763	8.36756563	8.91607096	-2.06343134	2.35456609	9.80272334	4.01442049	1.66854052	7.68795045	-2.52328890	2.43105798	10.23341747	-1.51612723	1.45467992	9.74034668	1.12477421	-2.09965252	-4.79890581	-10.57209583	11.53553985	6.71135122	2.28070409	10.20974197
3036	30.35000000	-8.42631557	-0.99969289	8.65237465	8.96453499	-1.89782592	2.51495701	12.22956328	-0.91333008	3.08208301	8.63259659	-0.96018087	2.22667323	10.71668600	-2.19142781	1.39248621	10.33620748	1.41016013	-1.55093624	-2.73105225	0.03668381	8.60103841	6.45311753	2.49350847	10.51900164
3037	30.36000000	-8.51926168	-0.91436900	8.72587631	9.29386122	-1.55173539	2.78995574	12.00562106	-7.20531432	4.90562934	9.81808610	0.23822925	2.25103668	10.98000859	-2.42077796	1.70937940	10.72836742	1.54279003	-1.24633493	5.06451356	4.23220758	10.34777131	6.16947264	2.67329647	10.67996897
3038	30.37000000	-8.54989244	-0.85563060	8.86825301	9.68702257	-1.10938728	3.34319656	9.80060615	-7.83639056	6.33012805	11.20846129	1.15624387	2.84347412	11.04207859	-1.90623700	1.89148799	10.87827147	1.84785908	-0.95975026	7.34253950	4.51423404	11.05719657	6.59878839	2.69453303	10.44921653
3039	30.38000000	-8.83825530	-0.84473228	9.12553937	10.01968709	-0.58986614	4.28158291	10.93179206	-2.69003868	6.35297895	12.89674095	0.46386141	3.76156407	11.19811634	-1.24086665	2.20645153	10.65404642	2.38091514	-0.94728734	9.83102826	2.07085333	10.82071277	6.50145768	3.13174245	10.59213193
3040	30.39000000	-9.39169285	-0.70454522	9.46577907	10.58899259	0.12070543	5.32595961	13.78499094	1.63171793	4.93454001	14.62609616	-2.25477867	4.21656899	11.71654611	-0.51099201	2.65315523	10.25054129	2.67372786	-0.85689851	15.79696690	-10.81221274	9.64781010	6.43028026	3.68873459	11.09780347
3041	30.40000000	-9.77322005	-0.42714531	9.70064026	11.34247628	0.86974211	6.27146839	14.39015696	1.80637685	2.17035843	15.84744265	-5.22725826	3.53055076	12.41031849	0.19868428	2.78985710	9.94531064	2.84723715	-0.76684501	16.40498159	-8.91677895	7.45460080	6.48815530	4.75237893	12.15420396
3042	30.41000000	-10.05995789	-0.15370750	9.81420843	12.11005720	1.62580204	6.54616671	13.33048738	0.28499218	0.29572329	15.17548586	-7.48550697	1.08187969	13.36341171	0.87535171	2.39982715	9.78289756	2.65852200	-0.71385702	8.13433057	-2.58997395	9.09345300	6.86118452	5.01409207	12.13568512
3043	30.42000000	-10.12750862	0.22587939	9.80493120	12.52230484	2.55226656	6.13367818	12.11316733	-0.04286712	1.64201115	12.57572659	-7.13347055	-1.46999576	14.03244411	0.98021234	1.94913297	9.75154034	2.02891215	-0.32627537	12.73868767	4.67329251	11.83712479	8.49228845	4.57824221	12.06158667
3044	30.43000000	-9.41824332	0.71741351	9.54245418	12.08793993	3.12065113	5.68260180	10.53911017	1.90239752	2.93721199	10.92337078	-4.00201058	-2.07169954	14.18428383	-0.23785001	1.83548385	10.07979430	1.44708922	-0.15816183	7.13229567	2.00087160	10.13638000	9.33540227	3.18653961	12.31145047
